# xmcd CD database file
#
# Track frame offsets:
#	225
#	14742
#	48644
#	71886
#	97711
#	121501
#	156797
#	182646
#
# Disc length: 2885 seconds
#
# Revision: 0
# Processed by: cddbd v1.5.1PL2 Copyright (c) Steve Scherf et al.
# Submitted via: CDex 1.51
#
DISCID=630b4208
DTITLE=Dick Pierce - Big Hit
DYEAR=1994
DGENRE=Jazz
TTITLE0=Do It'n, Do It'n, Do It Up
TTITLE1=Dream Dancing
TTITLE2=Spanish Tinge
TTITLE3=Mother Love
TTITLE4=Big Hit
TTITLE5=I'm Late
TTITLE6=I'm Gonna Fly To You
TTITLE7=Atlantis
EXTD=YEAR: 1994
EXTT0=
EXTT1=
EXTT2=
EXTT3=
EXTT4=
EXTT5=
EXTT6=
EXTT7=
PLAYORDER=
